<svg width="14" height="13" viewBox="0 0 14 13" fill="none" xmlns="http://www.w3.org/2000/svg">
<g clip-path="url(#clip0_356_110)">
<path d="M14 6.5C14 8.22391 13.2625 9.87721 11.9497 11.0962C10.637 12.3152 8.85652 13 7 13C5.14348 13 3.36301 12.3152 2.05025 11.0962C0.737498 9.87721 0 8.22391 0 6.5C0 4.77609 0.737498 3.12279 2.05025 1.90381C3.36301 0.68482 5.14348 0 7 0C8.85652 0 10.637 0.68482 11.9497 1.90381C13.2625 3.12279 14 4.77609 14 6.5ZM7 2.84375C7 2.73601 6.95391 2.63267 6.87186 2.55649C6.78981 2.4803 6.67853 2.4375 6.5625 2.4375C6.44647 2.4375 6.33519 2.4803 6.25314 2.55649C6.17109 2.63267 6.125 2.73601 6.125 2.84375V7.3125C6.12502 7.38411 6.14543 7.45444 6.18415 7.51636C6.22288 7.57829 6.27854 7.62961 6.3455 7.66512L9.408 9.29012C9.5085 9.34056 9.62626 9.35249 9.73611 9.32337C9.84596 9.29425 9.93919 9.22639 9.99587 9.13429C10.0525 9.04218 10.0682 8.93315 10.0394 8.83048C10.0107 8.72782 9.93982 8.63967 9.842 8.58488L7 7.07688V2.84375Z" fill="#C08036"/>
</g>
<defs>
<clipPath id="clip0_356_110">
<rect width="14" height="13" fill="white"/>
</clipPath>
</defs>
</svg>
