<svg width="11" height="11" viewBox="0 0 11 11" fill="none" xmlns="http://www.w3.org/2000/svg">
<path d="M10.0764 4.91477L8.13849 6.60602L8.71899 9.12399C8.74971 9.25562 8.74095 9.39339 8.69379 9.52007C8.64664 9.64674 8.56319 9.75671 8.45388 9.83622C8.34457 9.91573 8.21424 9.96125 8.0792 9.96709C7.94416 9.97293 7.81039 9.93884 7.69462 9.86907L5.49849 8.53704L3.30708 9.86907C3.19131 9.93884 3.05754 9.97293 2.9225 9.96709C2.78746 9.96125 2.65713 9.91573 2.54782 9.83622C2.43851 9.75671 2.35506 9.64674 2.3079 9.52007C2.26075 9.39339 2.25199 9.25562 2.2827 9.12399L2.86235 6.6086L0.924033 4.91477C0.821513 4.82635 0.747381 4.70963 0.710932 4.57925C0.674483 4.44886 0.677341 4.31062 0.719146 4.18186C0.760951 4.05309 0.839843 3.93953 0.945929 3.85543C1.05201 3.77132 1.18057 3.7204 1.31548 3.70907L3.8704 3.48778L4.8677 1.10903C4.91979 0.984212 5.00763 0.877594 5.12018 0.802601C5.23273 0.727608 5.36496 0.687592 5.50021 0.687592C5.63545 0.687592 5.76768 0.727608 5.88023 0.802601C5.99278 0.877594 6.08062 0.984212 6.13271 1.10903L7.13302 3.48778L9.68708 3.70907C9.82199 3.7204 9.95054 3.77132 10.0566 3.85543C10.1627 3.93953 10.2416 4.05309 10.2834 4.18186C10.3252 4.31062 10.3281 4.44886 10.2916 4.57925C10.2552 4.70963 10.181 4.82635 10.0785 4.91477H10.0764Z" fill="#C08036"/>
</svg>
