<svg width="17" height="17" viewBox="0 0 17 17" fill="none" xmlns="http://www.w3.org/2000/svg">
<path d="M9.72825 15.453C11.5802 13.8231 14.875 10.4932 14.875 7.4375C14.875 5.74675 14.2034 4.12524 13.0078 2.92969C11.8123 1.73415 10.1908 1.0625 8.5 1.0625C6.80925 1.0625 5.18774 1.73415 3.99219 2.92969C2.79665 4.12524 2.125 5.74675 2.125 7.4375C2.125 10.4932 5.41875 13.8231 7.27175 15.453C7.60974 15.7547 8.04695 15.9214 8.5 15.9214C8.95305 15.9214 9.39026 15.7547 9.72825 15.453ZM6.375 7.4375C6.375 6.87391 6.59888 6.33341 6.9974 5.9349C7.39591 5.53638 7.93641 5.3125 8.5 5.3125C9.06359 5.3125 9.60409 5.53638 10.0026 5.9349C10.4011 6.33341 10.625 6.87391 10.625 7.4375C10.625 8.00109 10.4011 8.54159 10.0026 8.9401C9.60409 9.33862 9.06359 9.5625 8.5 9.5625C7.93641 9.5625 7.39591 9.33862 6.9974 8.9401C6.59888 8.54159 6.375 8.00109 6.375 7.4375Z" fill="#C08036"/>
</svg>
