<svg width="522" height="48" viewBox="0 0 522 48" fill="none" xmlns="http://www.w3.org/2000/svg">
<path fill-rule="evenodd" clip-rule="evenodd" d="M21.1966 47.9863C32.9031 47.9863 42.3932 37.2442 42.3932 23.9932C42.3932 10.7421 32.9031 0 21.1966 0C9.49003 0 0 10.7421 0 23.9932C0 37.2442 9.49003 47.9863 21.1966 47.9863ZM499.829 47.9863C511.536 47.9863 521.026 37.2442 521.026 23.9932C521.026 10.7421 511.536 9.61513e-06 499.829 9.61513e-06C488.123 9.61513e-06 478.633 10.7421 478.633 23.9932C478.633 37.2442 488.123 47.9863 499.829 47.9863ZM67.0088 24.7671C67.0088 31.6064 62.1107 37.1507 56.0686 37.1507C50.0265 37.1507 45.1284 31.6064 45.1284 24.7671C45.1284 17.9279 50.0265 12.3836 56.0686 12.3836C62.1107 12.3836 67.0088 17.9279 67.0088 24.7671ZM80.0001 37.1507C85.6645 37.1507 90.2565 31.6064 90.2565 24.7671C90.2565 17.9279 85.6645 12.3836 80.0001 12.3836C74.3356 12.3836 69.7437 17.9279 69.7437 24.7671C69.7437 31.6064 74.3356 37.1507 80.0001 37.1507ZM114.872 24.7671C114.872 31.6064 109.974 37.1507 103.932 37.1507C97.8895 37.1507 92.9915 31.6064 92.9915 24.7671C92.9915 17.9279 97.8895 12.3836 103.932 12.3836C109.974 12.3836 114.872 17.9279 114.872 24.7671ZM127.863 37.1507C133.528 37.1507 138.12 31.6064 138.12 24.7671C138.12 17.9279 133.528 12.3836 127.863 12.3836C122.199 12.3836 117.607 17.9279 117.607 24.7671C117.607 31.6064 122.199 37.1507 127.863 37.1507ZM162.735 24.7671C162.735 31.6064 157.837 37.1507 151.795 37.1507C145.753 37.1507 140.855 31.6064 140.855 24.7671C140.855 17.9279 145.753 12.3836 151.795 12.3836C157.837 12.3836 162.735 17.9279 162.735 24.7671ZM176.41 37.1507C182.452 37.1507 187.351 31.6064 187.351 24.7671C187.351 17.9279 182.452 12.3836 176.41 12.3836C170.368 12.3836 165.47 17.9279 165.47 24.7671C165.47 31.6064 170.368 37.1507 176.41 37.1507ZM210.599 24.7671C210.599 31.6064 206.007 37.1507 200.342 37.1507C194.678 37.1507 190.086 31.6064 190.086 24.7671C190.086 17.9279 194.678 12.3836 200.342 12.3836C206.007 12.3836 210.599 17.9279 210.599 24.7671ZM224.274 37.1507C230.316 37.1507 235.214 31.6064 235.214 24.7671C235.214 17.9279 230.316 12.3836 224.274 12.3836C218.232 12.3836 213.333 17.9279 213.333 24.7671C213.333 31.6064 218.232 37.1507 224.274 37.1507ZM259.829 24.7671C259.829 31.6064 254.931 37.1507 248.889 37.1507C242.847 37.1507 237.949 31.6064 237.949 24.7671C237.949 17.9279 242.847 12.3836 248.889 12.3836C254.931 12.3836 259.829 17.9279 259.829 24.7671ZM272.137 37.1507C278.179 37.1507 283.077 31.6064 283.077 24.7671C283.077 17.9279 278.179 12.3836 272.137 12.3836C266.095 12.3836 261.197 17.9279 261.197 24.7671C261.197 31.6064 266.095 37.1507 272.137 37.1507ZM307.692 24.7671C307.692 31.6064 302.794 37.1507 296.752 37.1507C290.71 37.1507 285.812 31.6064 285.812 24.7671C285.812 17.9279 290.71 12.3836 296.752 12.3836C302.794 12.3836 307.692 17.9279 307.692 24.7671ZM320.684 37.1507C326.348 37.1507 330.94 31.6064 330.94 24.7671C330.94 17.9279 326.348 12.3836 320.684 12.3836C315.019 12.3836 310.427 17.9279 310.427 24.7671C310.427 31.6064 315.019 37.1507 320.684 37.1507ZM355.556 24.7671C355.556 31.6064 350.658 37.1507 344.615 37.1507C338.573 37.1507 333.675 31.6064 333.675 24.7671C333.675 17.9279 338.573 12.3836 344.615 12.3836C350.658 12.3836 355.556 17.9279 355.556 24.7671ZM369.231 37.1507C375.273 37.1507 380.171 31.6064 380.171 24.7671C380.171 17.9279 375.273 12.3836 369.231 12.3836C363.189 12.3836 358.291 17.9279 358.291 24.7671C358.291 31.6064 363.189 37.1507 369.231 37.1507ZM403.419 24.7671C403.419 31.6064 398.827 37.1507 393.162 37.1507C387.498 37.1507 382.906 31.6064 382.906 24.7671C382.906 17.9279 387.498 12.3836 393.162 12.3836C398.827 12.3836 403.419 17.9279 403.419 24.7671ZM417.094 37.1507C423.136 37.1507 428.034 31.6064 428.034 24.7671C428.034 17.9279 423.136 12.3836 417.094 12.3836C411.052 12.3836 406.154 17.9279 406.154 24.7671C406.154 31.6064 411.052 37.1507 417.094 37.1507ZM451.282 24.7671C451.282 31.6064 446.69 37.1507 441.026 37.1507C435.361 37.1507 430.769 31.6064 430.769 24.7671C430.769 17.9279 435.361 12.3836 441.026 12.3836C446.69 12.3836 451.282 17.9279 451.282 24.7671ZM464.958 37.1507C471 37.1507 475.898 31.6064 475.898 24.7671C475.898 17.9279 471 12.3836 464.958 12.3836C458.915 12.3836 454.017 17.9279 454.017 24.7671C454.017 31.6064 458.915 37.1507 464.958 37.1507Z" fill="#2F4858"/>
</svg>
